<svg width="32" height="32" viewBox="0 0 32 32" fill="none" xmlns="http://www.w3.org/2000/svg">
<rect width="32" height="32" rx="16" fill="#2787F5"/>
<path fill-rule="evenodd" clip-rule="evenodd" d="M25.3374 11.3926C25.4727 10.9695 25.3374 10.6587 24.6938 10.6587H22.5656C22.0244 10.6587 21.775 10.9272 21.6397 11.2233C21.6397 11.2233 20.5574 13.698 19.0242 15.3054C18.5281 15.7707 18.3026 15.9188 18.0321 15.9188C17.8968 15.9188 17.701 15.7707 17.701 15.3477V11.3926C17.701 10.8849 17.5439 10.6587 17.0929 10.6587H13.7486C13.4104 10.6587 13.207 10.8943 13.207 11.1176C13.207 11.5988 13.9736 11.7098 14.0526 13.0635V16.0034C14.0526 16.648 13.9285 16.7649 13.6579 16.7649C12.9364 16.7649 11.1814 14.2792 10.1405 11.4348C9.93654 10.882 9.73194 10.6587 9.18802 10.6587H7.05977C6.4517 10.6587 6.33008 10.9272 6.33008 11.2233C6.33008 11.7521 7.0516 14.3748 9.68961 17.8435C11.4483 20.2124 13.9261 21.4965 16.1808 21.4965C17.5337 21.4965 17.701 21.2113 17.701 20.72V18.9296C17.701 18.3592 17.8292 18.2454 18.2576 18.2454C18.5732 18.2454 19.1144 18.3934 20.377 19.5356C21.82 20.8892 22.0579 21.4965 22.8696 21.4965H24.9979C25.6059 21.4965 25.91 21.2113 25.7346 20.6485C25.5427 20.0875 24.8537 19.2736 23.9395 18.3088C23.4434 17.7589 22.6994 17.1667 22.4739 16.8706C22.1583 16.4899 22.2484 16.3207 22.4739 15.9823C22.4739 15.9823 25.0669 12.5558 25.3374 11.3926Z" fill="white"/>
</svg>
