<svg width="32" height="32" viewBox="0 0 32 32" fill="none" xmlns="http://www.w3.org/2000/svg">
<rect width="32" height="32" rx="16" fill="#FF0000"/>
<path d="M24.8999 11.5986C24.691 10.8132 24.0729 10.1936 23.2866 9.98119C21.8648 9.6001 16.16 9.6001 16.16 9.6001C16.16 9.6001 10.4582 9.6001 9.0335 9.98119C8.25004 10.1906 7.63198 10.8103 7.42016 11.5986C7.04004 13.0241 7.04004 16.0001 7.04004 16.0001C7.04004 16.0001 7.04004 18.9761 7.42016 20.4016C7.62908 21.187 8.24714 21.8066 9.0335 22.019C10.4582 22.4001 16.16 22.4001 16.16 22.4001C16.16 22.4001 21.8648 22.4001 23.2866 22.019C24.07 21.8096 24.6881 21.1899 24.8999 20.4016C25.28 18.9761 25.28 16.0001 25.28 16.0001C25.28 16.0001 25.28 13.0241 24.8999 11.5986Z" fill="white"/>
<path d="M14.3378 18.7434L19.0762 16.0001L14.3378 13.2568V18.7434Z" fill="#FF0000"/>
</svg>
