<svg width="26" height="26" viewBox="0 0 26 26" fill="none" xmlns="http://www.w3.org/2000/svg">
<path fill-rule="evenodd" clip-rule="evenodd" d="M13 0C5.8203 0 0 5.8203 0 13C0 20.1797 5.8203 26 13 26C20.1797 26 26 20.1797 26 13C26 5.8203 20.1797 0 13 0ZM10.1411 6.10787C10.8807 6.07421 11.117 6.06598 13 6.06598H12.9978C14.8814 6.06598 15.1168 6.07421 15.8564 6.10787C16.5945 6.14167 17.0986 6.25853 17.5406 6.42998C17.9971 6.60693 18.3827 6.84382 18.7684 7.22949C19.1541 7.61487 19.391 8.0017 19.5686 8.45772C19.7391 8.89856 19.8561 9.40239 19.8908 10.1405C19.924 10.8801 19.9326 11.1164 19.9326 12.9994C19.9326 14.8824 19.924 15.1181 19.8908 15.8577C19.8561 16.5955 19.7391 17.0995 19.5686 17.5405C19.391 17.9963 19.1541 18.3832 18.7684 18.7686C18.3832 19.1542 17.9969 19.3917 17.5411 19.5688C17.0999 19.7402 16.5955 19.8571 15.8574 19.8909C15.1178 19.9246 14.8822 19.9328 12.9991 19.9328C11.1162 19.9328 10.8801 19.9246 10.1405 19.8909C9.40254 19.8571 8.89856 19.7402 8.45743 19.5688C8.0017 19.3917 7.61487 19.1542 7.22964 18.7686C6.84411 18.3832 6.60722 17.9963 6.42998 17.5403C6.25867 17.0995 6.14181 16.5957 6.10787 15.8575C6.07436 15.118 6.06598 14.8824 6.06598 12.9994C6.06598 11.1164 6.07465 10.8799 6.10772 10.1404C6.14095 9.40254 6.25795 8.89856 6.42984 8.45757C6.60751 8.0017 6.8444 7.61487 7.23007 7.22949C7.61545 6.84397 8.00228 6.60707 8.45829 6.42998C8.89914 6.25853 9.40297 6.14167 10.1411 6.10787ZM12.3784 7.31667C12.4991 7.31649 12.6291 7.31654 12.7693 7.31661L13.0004 7.31667C14.8516 7.31667 15.071 7.32332 15.802 7.35654C16.478 7.38745 16.8449 7.50041 17.0893 7.59531C17.4129 7.72098 17.6436 7.8712 17.8861 8.11387C18.1288 8.35654 18.279 8.58765 18.4049 8.91121C18.4998 9.15533 18.6129 9.52222 18.6437 10.1982C18.6769 10.9291 18.6842 11.1487 18.6842 12.999C18.6842 14.8494 18.6769 15.0689 18.6437 15.7998C18.6128 16.4758 18.4998 16.8427 18.4049 17.0869C18.2793 17.4104 18.1288 17.6408 17.8861 17.8833C17.6434 18.126 17.413 18.2762 17.0893 18.4019C16.8452 18.4972 16.478 18.6099 15.802 18.6408C15.0711 18.674 14.8516 18.6812 13.0004 18.6812C11.149 18.6812 10.9296 18.674 10.1987 18.6408C9.52267 18.6096 9.15578 18.4966 8.91123 18.4017C8.58768 18.2761 8.35656 18.1259 8.11389 17.8832C7.87122 17.6405 7.721 17.41 7.59504 17.0863C7.50014 16.8422 7.38704 16.4753 7.35627 15.7993C7.32305 15.0684 7.31641 14.8488 7.31641 12.9973C7.31641 11.1458 7.32305 10.9274 7.35627 10.1965C7.38718 9.52049 7.50014 9.15359 7.59504 8.90919C7.72071 8.58563 7.87122 8.35452 8.11389 8.11185C8.35656 7.86918 8.58768 7.71896 8.91123 7.593C9.15564 7.49767 9.52267 7.385 10.1987 7.35394C10.8383 7.32505 11.0862 7.31639 12.3784 7.31494V7.31667ZM16.7011 8.46812C16.2417 8.46812 15.8691 8.84036 15.8691 9.29984C15.8691 9.75918 16.2417 10.1319 16.7011 10.1319C17.1604 10.1319 17.5331 9.75918 17.5331 9.29984C17.5331 8.84051 17.1604 8.46783 16.7011 8.46783V8.46812ZM9.4397 13.0012C9.4397 11.0349 11.0339 9.44069 13.0001 9.44061C14.9665 9.44061 16.5603 11.0349 16.5603 13.0012C16.5603 14.9675 14.9666 16.5611 13.0003 16.5611C11.0339 16.5611 9.4397 14.9675 9.4397 13.0012ZM15.3117 13.0006C15.3117 11.7241 14.2769 10.6895 13.0006 10.6895C11.7241 10.6895 10.6895 11.7241 10.6895 13.0006C10.6895 14.2769 11.7241 15.3117 13.0006 15.3117C14.2769 15.3117 15.3117 14.2769 15.3117 13.0006Z" fill="#C6CDE4"/>
<path fill-rule="evenodd" clip-rule="evenodd" d="M13 0C5.8203 0 0 5.8203 0 13C0 20.1797 5.8203 26 13 26C20.1797 26 26 20.1797 26 13C26 5.8203 20.1797 0 13 0ZM10.1411 6.10787C10.8807 6.07421 11.117 6.06598 13 6.06598H12.9978C14.8814 6.06598 15.1168 6.07421 15.8564 6.10787C16.5945 6.14167 17.0986 6.25853 17.5406 6.42998C17.9971 6.60693 18.3827 6.84382 18.7684 7.22949C19.1541 7.61487 19.391 8.0017 19.5686 8.45772C19.7391 8.89856 19.8561 9.40239 19.8908 10.1405C19.924 10.8801 19.9326 11.1164 19.9326 12.9994C19.9326 14.8824 19.924 15.1181 19.8908 15.8577C19.8561 16.5955 19.7391 17.0995 19.5686 17.5405C19.391 17.9963 19.1541 18.3832 18.7684 18.7686C18.3832 19.1542 17.9969 19.3917 17.5411 19.5688C17.0999 19.7402 16.5955 19.8571 15.8574 19.8909C15.1178 19.9246 14.8822 19.9328 12.9991 19.9328C11.1162 19.9328 10.8801 19.9246 10.1405 19.8909C9.40254 19.8571 8.89856 19.7402 8.45743 19.5688C8.0017 19.3917 7.61487 19.1542 7.22964 18.7686C6.84411 18.3832 6.60722 17.9963 6.42998 17.5403C6.25867 17.0995 6.14181 16.5957 6.10787 15.8575C6.07436 15.118 6.06598 14.8824 6.06598 12.9994C6.06598 11.1164 6.07465 10.8799 6.10772 10.1404C6.14095 9.40254 6.25795 8.89856 6.42984 8.45757C6.60751 8.0017 6.8444 7.61487 7.23007 7.22949C7.61545 6.84397 8.00228 6.60707 8.45829 6.42998C8.89914 6.25853 9.40297 6.14167 10.1411 6.10787ZM12.3784 7.31667C12.4991 7.31649 12.6291 7.31654 12.7693 7.31661L13.0004 7.31667C14.8516 7.31667 15.071 7.32332 15.802 7.35654C16.478 7.38745 16.8449 7.50041 17.0893 7.59531C17.4129 7.72098 17.6436 7.8712 17.8861 8.11387C18.1288 8.35654 18.279 8.58765 18.4049 8.91121C18.4998 9.15533 18.6129 9.52222 18.6437 10.1982C18.6769 10.9291 18.6842 11.1487 18.6842 12.999C18.6842 14.8494 18.6769 15.0689 18.6437 15.7998C18.6128 16.4758 18.4998 16.8427 18.4049 17.0869C18.2793 17.4104 18.1288 17.6408 17.8861 17.8833C17.6434 18.126 17.413 18.2762 17.0893 18.4019C16.8452 18.4972 16.478 18.6099 15.802 18.6408C15.0711 18.674 14.8516 18.6812 13.0004 18.6812C11.149 18.6812 10.9296 18.674 10.1987 18.6408C9.52267 18.6096 9.15578 18.4966 8.91123 18.4017C8.58768 18.2761 8.35656 18.1259 8.11389 17.8832C7.87122 17.6405 7.721 17.41 7.59504 17.0863C7.50014 16.8422 7.38704 16.4753 7.35627 15.7993C7.32305 15.0684 7.31641 14.8488 7.31641 12.9973C7.31641 11.1458 7.32305 10.9274 7.35627 10.1965C7.38718 9.52049 7.50014 9.15359 7.59504 8.90919C7.72071 8.58563 7.87122 8.35452 8.11389 8.11185C8.35656 7.86918 8.58768 7.71896 8.91123 7.593C9.15564 7.49767 9.52267 7.385 10.1987 7.35394C10.8383 7.32505 11.0862 7.31639 12.3784 7.31494V7.31667ZM16.7011 8.46812C16.2417 8.46812 15.8691 8.84036 15.8691 9.29984C15.8691 9.75918 16.2417 10.1319 16.7011 10.1319C17.1604 10.1319 17.5331 9.75918 17.5331 9.29984C17.5331 8.84051 17.1604 8.46783 16.7011 8.46783V8.46812ZM9.4397 13.0012C9.4397 11.0349 11.0339 9.44069 13.0001 9.44061C14.9665 9.44061 16.5603 11.0349 16.5603 13.0012C16.5603 14.9675 14.9666 16.5611 13.0003 16.5611C11.0339 16.5611 9.4397 14.9675 9.4397 13.0012ZM15.3117 13.0006C15.3117 11.7241 14.2769 10.6895 13.0006 10.6895C11.7241 10.6895 10.6895 11.7241 10.6895 13.0006C10.6895 14.2769 11.7241 15.3117 13.0006 15.3117C14.2769 15.3117 15.3117 14.2769 15.3117 13.0006Z" fill="url(#paint0_linear_1211_3999)"/>
<defs>
<linearGradient id="paint0_linear_1211_3999" x1="25.5003" y1="26" x2="-0.499719" y2="-6.99847e-07" gradientUnits="userSpaceOnUse">
<stop stop-color="#FBE18A"/>
<stop offset="0.21" stop-color="#FCBB45"/>
<stop offset="0.38" stop-color="#F75274"/>
<stop offset="0.52" stop-color="#D53692"/>
<stop offset="0.74" stop-color="#8F39CE"/>
<stop offset="1" stop-color="#5B4FE9"/>
</linearGradient>
</defs>
</svg>
