<svg width="26" height="26" viewBox="0 0 26 26" fill="none" xmlns="http://www.w3.org/2000/svg">
<path fill-rule="evenodd" clip-rule="evenodd" d="M13 26C20.1797 26 26 20.1797 26 13C26 5.8203 20.1797 0 13 0C5.8203 0 0 5.8203 0 13C0 20.1797 5.8203 26 13 26ZM10.6165 18.958C10.9326 18.958 11.0771 18.8174 11.2518 18.6473L11.2665 18.633L12.8278 17.1148L16.0766 19.5151C16.6745 19.8449 17.1059 19.6741 17.2549 18.96L19.3874 8.91068C19.6057 8.03532 19.0537 7.6383 18.4818 7.89796L5.95956 12.7265C5.1048 13.0693 5.10978 13.5462 5.80375 13.7587L9.01724 14.7617L16.4568 10.0681C16.808 9.85515 17.1304 9.96965 16.8658 10.2045L10.8381 15.644L10.8377 15.6438L10.8376 15.6444L10.6165 18.958Z" fill="#C6CDE4"/>
</svg>
