<svg width="26" height="26" viewBox="0 0 26 26" fill="none" xmlns="http://www.w3.org/2000/svg">
<path fill-rule="evenodd" clip-rule="evenodd" d="M13 0C20.1797 0 26 5.8203 26 13C26 20.1797 20.1797 26 13 26C5.8203 26 0 20.1797 0 13C0 5.8203 5.8203 0 13 0ZM13.779 5.29544C14.663 5.40577 15.3773 5.61871 16.1611 6.001C16.9319 6.37818 17.4253 6.7348 18.0779 7.38391C18.6895 7.99712 19.0287 8.46153 19.3884 9.18247C19.8895 10.1882 20.1748 11.3839 20.2235 12.7001C20.2416 13.149 20.2287 13.2491 20.1259 13.3774C19.9306 13.6263 19.5015 13.5852 19.3551 13.3056C19.3088 13.2132 19.2959 13.1337 19.2805 12.7745C19.2548 12.2228 19.2163 11.8662 19.1392 11.4403C18.836 9.77003 18.0343 8.43586 16.7546 7.47884C15.6882 6.67836 14.5859 6.28835 13.1418 6.2037C12.6536 6.17548 12.5688 6.15753 12.4583 6.07285C12.2527 5.91121 12.2424 5.5315 12.4403 5.35447C12.561 5.24412 12.6458 5.22873 13.0647 5.24156C13.2831 5.24926 13.6043 5.27492 13.779 5.29544ZM7.90438 5.57247C7.99434 5.60325 8.13309 5.67508 8.21276 5.7264C8.70094 6.04969 10.0603 7.78665 10.5048 8.65387C10.7592 9.14904 10.844 9.51594 10.7644 9.7879C10.6821 10.0804 10.5459 10.2343 9.93694 10.7244C9.69282 10.9219 9.46412 11.1246 9.42817 11.1785C9.33566 11.3119 9.26111 11.5736 9.26111 11.7584C9.26372 12.1868 9.54122 12.9643 9.90612 13.5621C10.1887 14.0265 10.6949 14.6217 11.196 15.0784C11.7845 15.6172 12.3035 15.9841 12.8894 16.274C13.6423 16.6486 14.1022 16.7435 14.4389 16.587C14.5237 16.5485 14.6136 16.4972 14.6419 16.4742C14.6675 16.4511 14.8654 16.2099 15.0813 15.9431C15.4975 15.4196 15.5926 15.335 15.8778 15.2375C16.2402 15.1143 16.6102 15.1477 16.9827 15.3375C17.2654 15.4838 17.8821 15.8661 18.2804 16.1432C18.8046 16.5101 19.9249 17.4234 20.0766 17.6056C20.3438 17.934 20.3901 18.3548 20.2101 18.8192C20.02 19.3092 19.28 20.2278 18.7635 20.6203C18.2958 20.9744 17.9643 21.1103 17.5275 21.1309C17.1678 21.1488 17.0187 21.1181 16.5588 20.9282C12.9511 19.4427 10.0706 17.2259 7.7836 14.1804C6.58877 12.5897 5.67911 10.9399 5.05725 9.22859C4.69496 8.23055 4.67699 7.79693 4.97502 7.28636C5.10353 7.07086 5.65085 6.53718 6.04913 6.23957C6.7121 5.74694 7.01787 5.56476 7.26198 5.51346C7.429 5.47754 7.71935 5.50575 7.90438 5.57247ZM13.9561 7.15565C15.5159 7.38398 16.7235 8.10753 17.515 9.28261C17.9595 9.94456 18.237 10.722 18.3321 11.5558C18.3655 11.8611 18.3655 12.4179 18.3296 12.5103C18.2961 12.5975 18.1882 12.7155 18.0957 12.7643C17.9955 12.8156 17.7822 12.8105 17.664 12.7489C17.4661 12.6488 17.4071 12.4897 17.4071 12.0587C17.4071 11.3942 17.2349 10.6937 16.9368 10.1498C16.5976 9.52891 16.1043 9.01578 15.503 8.65913C14.9865 8.35125 14.2233 8.12291 13.527 8.06648C13.2751 8.04593 13.1364 7.99463 13.0413 7.8843C12.8949 7.71752 12.8794 7.49174 13.0028 7.30446C13.1364 7.09663 13.3419 7.06327 13.9561 7.15565ZM14.5033 9.09268C15.0095 9.20045 15.3975 9.39287 15.729 9.70333C16.1555 10.1061 16.3894 10.5936 16.4921 11.2941C16.5615 11.7508 16.5333 11.9303 16.3714 12.0792C16.2198 12.2177 15.9397 12.2228 15.7701 12.092C15.6468 11.9996 15.6082 11.9021 15.5799 11.6379C15.5466 11.2864 15.4849 11.0401 15.3795 10.8117C15.1534 10.3268 14.7551 10.0753 14.0819 9.99324C13.7658 9.95474 13.6707 9.91883 13.568 9.79826C13.3804 9.57503 13.4523 9.21327 13.7118 9.07985C13.8095 9.0311 13.8506 9.02597 14.0664 9.0388C14.2001 9.04649 14.398 9.06958 14.5033 9.09268Z" fill="#C6CDE4"/>
</svg>
