<svg width="26" height="26" viewBox="0 0 26 26" fill="none" xmlns="http://www.w3.org/2000/svg">
<path fill-rule="evenodd" clip-rule="evenodd" d="M13 0C5.8203 0 0 5.8203 0 13C0 20.1797 5.8203 26 13 26C20.1797 26 26 20.1797 26 13C26 5.8203 20.1797 0 13 0ZM14.0578 17.1038C13.9296 17.239 13.6794 17.2663 13.6794 17.2663H12.8506C12.8506 17.2663 11.0221 17.3741 9.41132 15.7284C7.65473 13.9329 6.10365 10.3706 6.10365 10.3706C6.10365 10.3706 6.01412 10.1369 6.11111 10.0244C6.2203 9.89721 6.51804 9.88922 6.51804 9.88922L8.49912 9.87658C8.49912 9.87658 8.68563 9.90653 8.81924 10.0031C8.92979 10.083 8.9915 10.2314 8.9915 10.2314C8.9915 10.2314 9.31162 11.0263 9.73551 11.7453C10.5636 13.1493 10.9488 13.4562 11.2296 13.3058C11.6393 13.0868 11.5165 11.3212 11.5165 11.3212C11.5165 11.3212 11.524 10.6808 11.3103 10.3952C11.1448 10.1742 10.8329 10.1096 10.6952 10.0916C10.5833 10.077 10.7664 9.82265 11.0038 9.70881C11.3605 9.53771 11.9899 9.52773 12.7339 9.53505C13.3138 9.54104 13.4806 9.57633 13.7072 9.63025C14.2329 9.75478 14.2165 10.1539 14.1811 11.0152C14.1705 11.2728 14.1582 11.5718 14.1582 11.9171C14.1582 11.9947 14.1559 12.0774 14.1535 12.1625C14.1412 12.6037 14.1271 13.1091 14.4234 13.2971C14.5753 13.393 14.9463 13.3111 15.8748 11.7639C16.3149 11.0303 16.6445 10.1682 16.6445 10.1682C16.6445 10.1682 16.7171 10.0144 16.829 9.94847C16.9436 9.88124 17.0983 9.90187 17.0983 9.90187L19.1831 9.88922C19.1831 9.88922 19.8098 9.81533 19.9108 10.0936C20.0173 10.3845 19.6768 11.0649 18.825 12.1794C18.017 13.2368 17.6237 13.6261 17.6598 13.9705C17.6862 14.222 17.9418 14.4496 18.4323 14.8962C19.4563 15.8294 19.7308 16.3204 19.7967 16.4384C19.8022 16.4481 19.8062 16.4554 19.8091 16.4601C20.2683 17.2077 19.2998 17.2663 19.2998 17.2663L17.4475 17.2916C17.4475 17.2916 17.0501 17.3688 16.5265 17.0159C16.2522 16.8313 15.9842 16.5297 15.729 16.2424C15.3391 15.8036 14.979 15.3983 14.6716 15.4941C14.1555 15.6552 14.1711 16.7463 14.1711 16.7463C14.1711 16.7463 14.1751 16.98 14.0578 17.1038Z" fill="#C6CDE4"/>
</svg>
