<svg width="26" height="26" viewBox="0 0 26 26" fill="none" xmlns="http://www.w3.org/2000/svg">
<path fill-rule="evenodd" clip-rule="evenodd" d="M13 26C20.1797 26 26 20.1797 26 13C26 5.8203 20.1797 0 13 0C5.8203 0 0 5.8203 0 13C0 20.1797 5.8203 26 13 26ZM13.4287 20.233H13.4255C12.1318 20.2326 10.8605 19.908 9.73144 19.2921L5.63354 20.3671L6.73021 16.3614C6.05373 15.189 5.69778 13.8592 5.69836 12.4968C5.70005 8.23467 9.16782 4.76709 13.4286 4.76709C15.4966 4.76798 17.4374 5.57302 18.8969 7.03419C20.3564 8.49528 21.1597 10.4374 21.1589 12.5029C21.1572 16.7641 17.6908 20.2313 13.4287 20.233ZM9.9217 17.8912L10.1563 18.0305C11.1428 18.6159 12.2736 18.9256 13.4265 18.9261H13.4291C16.9704 18.9261 19.8526 16.0438 19.8541 12.501C19.8547 10.7842 19.1871 9.16997 17.974 7.9555C16.761 6.74104 15.1478 6.07188 13.4316 6.07129C9.8876 6.07129 7.00531 8.95332 7.00391 12.4958C7.00341 13.7098 7.34309 14.8922 7.98625 15.9151L8.13902 16.1582L7.48995 18.5291L9.9217 17.8912ZM17.3233 14.3395C17.2844 14.2747 17.1934 14.2307 17.0587 14.1656C17.0261 14.1498 16.9908 14.1328 16.9531 14.1139C16.7599 14.0172 15.8103 13.55 15.6332 13.4855C15.4562 13.4211 15.3274 13.3889 15.1987 13.5822C15.0699 13.7755 14.6998 14.2106 14.5871 14.3395C14.4744 14.4684 14.3617 14.4846 14.1687 14.3879C14.1371 14.3721 14.0941 14.3534 14.041 14.3304C13.7691 14.2124 13.2326 13.9797 12.6154 13.4292C12.0411 12.917 11.6535 12.2845 11.5408 12.0911C11.4282 11.8977 11.5288 11.7933 11.6255 11.6969C11.6834 11.6393 11.7498 11.5584 11.8163 11.4775L11.8163 11.4775L11.8163 11.4774C11.8497 11.4368 11.883 11.3962 11.9153 11.3585C11.9973 11.2627 12.0329 11.1901 12.0813 11.0914C12.0898 11.0739 12.0987 11.0557 12.1084 11.0363C12.1728 10.9074 12.1406 10.7946 12.0923 10.6979C12.06 10.6332 11.8764 10.1862 11.7102 9.78157L11.7102 9.78155C11.628 9.58145 11.55 9.39173 11.4968 9.26376C11.3583 8.93124 11.218 8.93206 11.1055 8.93272C11.0905 8.93281 11.0761 8.93289 11.0622 8.9322C10.9497 8.92654 10.8208 8.92535 10.692 8.92535C10.5632 8.92535 10.354 8.9737 10.1769 9.16707C10.1656 9.17947 10.1529 9.193 10.1391 9.2077C9.93795 9.42236 9.50092 9.8887 9.50092 10.7784C9.50092 11.7242 10.1858 12.638 10.288 12.7744L10.2896 12.7765C10.2959 12.7849 10.3073 12.8012 10.3235 12.8244C10.5547 13.1561 11.7784 14.9111 13.5892 15.693C14.05 15.892 14.4098 16.0109 14.6903 16.0999C15.153 16.2469 15.5741 16.2262 15.9069 16.1764C16.278 16.121 17.0496 15.7092 17.2107 15.258C17.3715 14.8068 17.3715 14.42 17.3233 14.3395Z" fill="#25D366"/>
</svg>
