<svg width="26" height="26" viewBox="0 0 26 26" fill="none" xmlns="http://www.w3.org/2000/svg">
<path fill-rule="evenodd" clip-rule="evenodd" d="M26 13C26 20.1797 20.1797 26 13 26C5.8203 26 0 20.1797 0 13C0 5.8203 5.8203 0 13 0C20.1797 0 26 5.8203 26 13ZM13.4255 20.233H13.4287C17.6908 20.2313 21.1572 16.7641 21.1589 12.5029C21.1597 10.4374 20.3564 8.49528 18.8969 7.03419C17.4374 5.57302 15.4966 4.76798 13.4286 4.76709C9.16782 4.76709 5.70005 8.23467 5.69836 12.4968C5.69778 13.8592 6.05373 15.189 6.73021 16.3614L5.63354 20.3671L9.73144 19.2921C10.8605 19.908 12.1318 20.2326 13.4255 20.233Z" fill="#C6CDE4"/>
<path fill-rule="evenodd" clip-rule="evenodd" d="M10.1563 18.0305L9.9217 17.8912L7.48995 18.5291L8.13902 16.1582L7.98625 15.9151C7.34309 14.8922 7.00341 13.7098 7.00391 12.4958C7.00531 8.95332 9.8876 6.07129 13.4316 6.07129C15.1478 6.07188 16.761 6.74104 17.974 7.9555C19.1871 9.16997 19.8547 10.7842 19.8541 12.501C19.8526 16.0438 16.9704 18.9261 13.4291 18.9261H13.4265C12.2736 18.9256 11.1428 18.6159 10.1563 18.0305ZM17.0587 14.1656C17.1934 14.2307 17.2844 14.2747 17.3233 14.3395C17.3715 14.42 17.3715 14.8068 17.2107 15.258C17.0496 15.7092 16.278 16.121 15.9069 16.1764C15.5741 16.2262 15.153 16.2469 14.6903 16.0999C14.4098 16.0109 14.05 15.892 13.5892 15.693C11.7784 14.9111 10.5547 13.1561 10.3235 12.8244C10.3073 12.8012 10.2959 12.7849 10.2896 12.7765L10.288 12.7744C10.1858 12.638 9.50092 11.7242 9.50092 10.7784C9.50092 9.8887 9.93795 9.42236 10.1391 9.2077C10.1529 9.193 10.1656 9.17947 10.1769 9.16707C10.354 8.9737 10.5632 8.92535 10.692 8.92535C10.8208 8.92535 10.9497 8.92654 11.0622 8.9322C11.0761 8.93289 11.0905 8.93281 11.1055 8.93272C11.218 8.93206 11.3583 8.93124 11.4968 9.26376C11.55 9.39173 11.628 9.58145 11.7102 9.78155C11.8764 10.1862 12.06 10.6332 12.0923 10.6979C12.1406 10.7946 12.1728 10.9074 12.1084 11.0363C12.0987 11.0557 12.0898 11.0739 12.0813 11.0914C12.0329 11.1901 11.9973 11.2627 11.9153 11.3585C11.883 11.3962 11.8496 11.4368 11.8163 11.4775C11.7498 11.5584 11.6834 11.6393 11.6255 11.6969C11.5288 11.7933 11.4282 11.8977 11.5408 12.0911C11.6535 12.2845 12.0411 12.917 12.6154 13.4292C13.2326 13.9797 13.7691 14.2124 14.041 14.3304C14.0941 14.3534 14.1371 14.3721 14.1687 14.3879C14.3617 14.4846 14.4744 14.4684 14.5871 14.3395C14.6998 14.2106 15.0699 13.7755 15.1987 13.5822C15.3274 13.3889 15.4562 13.4211 15.6332 13.4855C15.8103 13.55 16.7599 14.0172 16.9531 14.1139C16.9908 14.1328 17.0261 14.1498 17.0587 14.1656Z" fill="#C6CDE4"/>
</svg>
