<svg width="160" height="160" viewBox="0 0 160 160" fill="none" xmlns="http://www.w3.org/2000/svg">
<rect x="58" y="57" width="44.8" height="46.08" fill="white"/>
<path d="M141.325 49.082C139.853 43.539 135.516 39.1735 130.009 37.692C120.027 35 80 35 80 35C80 35 39.9735 35 29.9912 37.692C24.4841 39.1737 20.1468 43.539 18.6747 49.082C16 59.1289 16 80.0909 16 80.0909C16 80.0909 16 101.053 18.6747 111.1C20.1468 116.643 24.4841 120.826 29.9912 122.308C39.9735 125 80 125 80 125C80 125 120.027 125 130.009 122.308C135.516 120.826 139.853 116.643 141.325 111.1C144 101.053 144 80.0909 144 80.0909C144 80.0909 144 59.1289 141.325 49.082ZM66.909 99.1229V61.059L100.363 80.0914L66.909 99.1229Z" fill="#FF0000"/>
</svg>
